<?xml version="1.0" encoding="utf-8"?>
<!-- Generator: Adobe Illustrator 22.0.1, SVG Export Plug-In . SVG Version: 6.00 Build 0)  -->
<svg version="1.1" id="Layer_1" xmlns="http://www.w3.org/2000/svg" xmlns:xlink="http://www.w3.org/1999/xlink" x="0px" y="0px"
	 viewBox="0 0 120.9 29.7" style="enable-background:new 0 0 120.9 29.7;" xml:space="preserve">
<style type="text/css">
	.st0{fill:#FFFFFF;}
	.st1{fill:#F44B00;}
</style>
<g id="XMLID_3_">
	<g id="XMLID_40_">
		<g id="XMLID_43_">
			<g id="XMLID_44_">
				<g id="XMLID_50_">
					<g id="XMLID_165_">
						<path id="XMLID_181_" class="st0" d="M47,13.6l4.3-5h2.8l-4.4,5.2l4.4,5.3h-2.8l-4.3-5v5h-2.3V8.6H47V13.6z"/>
						<path id="XMLID_178_" class="st0" d="M54.1,13.9c0-0.8,0.1-1.5,0.4-2.2c0.3-0.7,0.7-1.3,1.2-1.8c0.5-0.5,1.1-0.9,1.8-1.2
							c0.7-0.3,1.4-0.5,2.2-0.5c0.8,0,1.6,0.1,2.3,0.4c0.7,0.3,1.3,0.7,1.8,1.2c0.5,0.5,0.9,1.1,1.2,1.8c0.3,0.7,0.4,1.5,0.4,2.3
							c0,0.8-0.1,1.6-0.4,2.2c-0.3,0.7-0.7,1.3-1.2,1.8c-0.5,0.5-1.1,0.9-1.8,1.2c-0.7,0.3-1.4,0.4-2.3,0.4c-0.8,0-1.5-0.1-2.2-0.4
							c-0.7-0.3-1.3-0.7-1.8-1.2c-0.5-0.5-0.9-1.1-1.2-1.8C54.3,15.5,54.1,14.7,54.1,13.9z M56.3,13.9c0,0.5,0.1,0.9,0.3,1.4
							c0.2,0.4,0.4,0.8,0.8,1.1c0.3,0.3,0.7,0.6,1.1,0.8c0.4,0.2,0.9,0.3,1.4,0.3c0.5,0,1-0.1,1.4-0.3c0.4-0.2,0.8-0.4,1.2-0.7
							c0.3-0.3,0.6-0.7,0.8-1.1c0.2-0.4,0.3-0.9,0.3-1.4c0-0.5-0.1-0.9-0.3-1.4c-0.2-0.4-0.4-0.8-0.8-1.2c-0.3-0.3-0.7-0.6-1.1-0.8
							c-0.4-0.2-0.9-0.3-1.4-0.3c-0.5,0-1,0.1-1.4,0.3c-0.4,0.2-0.8,0.5-1.1,0.8c-0.3,0.3-0.6,0.7-0.8,1.2
							C56.4,13,56.3,13.4,56.3,13.9z"/>
						<path id="XMLID_176_" class="st0" d="M69.4,8.6v1.6l1.3-1.6h3c0.8,0,1.4,0.2,1.9,0.5c0.5,0.3,0.8,0.7,1,1.2l1.3-1.7h3
							c0.5,0,1,0.1,1.3,0.2c0.4,0.2,0.7,0.4,0.9,0.6c0.2,0.3,0.4,0.6,0.5,0.9c0.1,0.4,0.2,0.7,0.2,1.1v7.6h-2.4v-7.2
							c0-0.1,0-0.3-0.1-0.4c-0.1-0.2-0.1-0.3-0.3-0.4c-0.1-0.1-0.2-0.2-0.4-0.3c-0.1-0.1-0.3-0.1-0.5-0.1h-3.6v8.5h-2.3v-7.2
							c0-0.4-0.1-0.7-0.3-1c-0.2-0.2-0.5-0.4-0.9-0.4h-3.6v8.5H67V8.6H69.4z"/>
						<path id="XMLID_174_" class="st0" d="M94.4,8.6H97l-5.1,10.5h-2.3L84.3,8.6h2.5l3.8,7.8h0.1L94.4,8.6z"/>
						<path id="XMLID_171_" class="st0" d="M98.9,8.6h2.4l5.2,10.5h-2.5l-1.4-2.9h-4.9l-1.3,2.9h-2.5L98.9,8.6z M100,10.8l-1.7,3.5
							h3.5L100,10.8L100,10.8z"/>
						<path id="XMLID_169_" class="st0" d="M106.4,13.8c0-0.7,0.1-1.3,0.3-2c0.2-0.6,0.5-1.2,1-1.7c0.4-0.5,0.9-0.9,1.5-1.2
							c0.6-0.3,1.2-0.4,2-0.4h5.2v1.8h-5.1c-0.3,0-0.6,0.1-0.9,0.3c-0.3,0.2-0.6,0.4-0.9,0.8c-0.3,0.3-0.5,0.7-0.7,1.1
							c-0.2,0.4-0.3,0.8-0.3,1.3c0,0.4,0.1,0.8,0.3,1.3c0.2,0.4,0.4,0.8,0.7,1.1c0.3,0.3,0.6,0.6,0.9,0.8c0.3,0.2,0.7,0.3,1,0.3h5
							v1.8h-5.2c-0.8,0-1.4-0.2-2-0.5c-0.6-0.3-1.1-0.7-1.5-1.2c-0.4-0.5-0.7-1.1-0.9-1.7C106.5,15.1,106.4,14.5,106.4,13.8z"/>
					</g>
					<g id="XMLID_52_">
						<g id="XMLID_53_">
							<path id="XMLID_154_" class="st0" d="M119.6,19.6c-0.7,0-1.3-0.6-1.3-1.3c0-0.7,0.6-1.3,1.3-1.3c0.7,0,1.3,0.6,1.3,1.3
								C120.9,19,120.3,19.6,119.6,19.6z M119.6,17.1c-0.6,0-1.2,0.5-1.2,1.2c0,0.6,0.5,1.2,1.2,1.2c0.6,0,1.2-0.5,1.2-1.2
								C120.7,17.6,120.2,17.1,119.6,17.1z M119.9,19.1l-0.4-0.6h-0.3v0.6h-0.2v-1.5h0.6c0.3,0,0.5,0.2,0.5,0.5
								c0,0.3-0.3,0.5-0.4,0.5l0.4,0.6H119.9z M119.7,17.7h-0.4v0.6h0.4c0.1,0,0.3-0.1,0.3-0.3C120,17.8,119.8,17.7,119.7,17.7z"/>
						</g>
					</g>
				</g>
			</g>
		</g>
	</g>
	<g id="XMLID_5_">
		<path id="XMLID_38_" class="st0" d="M45,24.1c0.1,0.3,0.3,0.3,0.5,0.3c0.2,0,0.4-0.1,0.4-0.3c0-0.5-1.4-0.2-1.4-1
			c0-0.5,0.4-0.7,0.9-0.7c0.5,0,0.9,0.2,0.9,0.7l-0.5-0.1c-0.1-0.3-0.3-0.3-0.5-0.3c-0.2,0-0.3,0.1-0.3,0.3c0,0.2,0.1,0.2,0.7,0.3
			c0.2,0,0.7,0.1,0.7,0.7c0,0.4-0.3,0.7-1,0.7c-0.5,0-1-0.3-1-0.8L45,24.1z"/>
		<path id="XMLID_35_" class="st0" d="M49.2,24.9c-0.7,0-1.2-0.5-1.2-1.2c0-0.7,0.5-1.2,1.2-1.2c0.7,0,1.2,0.5,1.2,1.2
			C50.4,24.3,49.9,24.9,49.2,24.9z M48.5,23.7c0,0.4,0.3,0.7,0.7,0.7c0.4,0,0.7-0.3,0.7-0.7c0-0.4-0.3-0.7-0.7-0.7
			C48.8,23,48.5,23.3,48.5,23.7z"/>
		<path id="XMLID_33_" class="st0" d="M52.6,24.4v0.4h-0.5v-2.3h1.7v0.4h-1.2v0.5h1v0.4h-1V24.4z"/>
		<path id="XMLID_31_" class="st0" d="M56.2,23h-0.7v-0.4h2V23h-0.7v1.9h-0.5V23z"/>
		<path id="XMLID_29_" class="st0" d="M61.4,24.8h-0.5l-0.4-1.6h0l-0.4,1.6h-0.5L59,22.5h0.5l0.3,1.6l0,0l0.4-1.6h0.5l0.4,1.6l0,0
			l0.3-1.6H62L61.4,24.8z"/>
		<path id="XMLID_26_" class="st0" d="M63.5,24.8l1-2.3h0.5l1,2.3h-0.5l-0.2-0.5h-1.2L64,24.8H63.5z M64.8,23l-0.4,0.9h0.8L64.8,23
			L64.8,23z"/>
		<path id="XMLID_23_" class="st0" d="M69.1,24l0.6,0.9h-0.6L68.6,24h-0.2v0.8h-0.5v-2.3h1c0.6,0,0.8,0.4,0.8,0.7
			C69.7,23.6,69.5,23.9,69.1,24L69.1,24z M68.3,22.9v0.7h0.4c0.2,0,0.4-0.1,0.4-0.3c0-0.3-0.2-0.3-0.4-0.3H68.3z"/>
		<path id="XMLID_21_" class="st0" d="M72.1,24.4h1.3v0.4h-1.8v-2.3h1.7v0.4h-1.2v0.5h1v0.4h-1V24.4z"/>
		<path id="XMLID_18_" class="st0" d="M77.4,24.8l1-2.3H79l1,2.3h-0.5l-0.2-0.5h-1.2l-0.2,0.5H77.4z M78.7,23l-0.4,0.9h0.8L78.7,23
			L78.7,23z"/>
		<path id="XMLID_15_" class="st0" d="M81.7,22.5h1c0.6,0,1,0.4,1,1.1c0,0.7-0.3,1.2-1,1.2h-1V22.5z M82.3,24.4h0.5
			c0.3,0,0.6-0.2,0.6-0.7c0-0.5-0.2-0.8-0.7-0.8h-0.4V24.4z"/>
		<path id="XMLID_13_" class="st0" d="M85.5,24.2v-0.2h0.8v0.2H85.5z"/>
		<path id="XMLID_11_" class="st0" d="M89.6,23.8h-1.1v1H88v-2.3h0.5v0.8h1.1v-0.8h0.5v2.3h-0.5V23.8z"/>
		<path id="XMLID_8_" class="st0" d="M93,24.9c-0.7,0-1.2-0.5-1.2-1.2c0-0.7,0.5-1.2,1.2-1.2c0.7,0,1.2,0.5,1.2,1.2
			C94.2,24.3,93.7,24.9,93,24.9z M92.3,23.7c0,0.4,0.3,0.7,0.7,0.7c0.4,0,0.7-0.3,0.7-0.7c0-0.4-0.3-0.7-0.7-0.7
			C92.6,23,92.3,23.3,92.3,23.7z"/>
		<path id="XMLID_6_" class="st0" d="M97,24.8c-0.6,0-1.2-0.5-1.2-1.2c0-0.6,0.5-1.2,1.2-1.2c0.4,0,0.8,0.2,1,0.6
			c-0.2,0.1-0.2,0.1-0.4,0.2C97.5,23.1,97.3,23,97,23c-0.4,0-0.7,0.3-0.7,0.7c0,0.4,0.3,0.7,0.7,0.7c0.3,0,0.5-0.1,0.6-0.4
			c0.2,0.1,0.2,0.1,0.4,0.2C97.8,24.6,97.5,24.8,97,24.8z"/>
	</g>
</g>
<g>
	<g id="XMLID_41_">
		<path id="XMLID_42_" class="st0" d="M14.9,24.7h19.5c0.1,0,1.8,0.1,2.9-0.9c0.6-0.5,0.9-1.3,0.9-2.4c0-1.5-1.1-2.7-2.6-2.9
			l-0.5-0.1l0-0.5c0-0.1,0-0.1,0-0.2c0-0.1,0-0.1,0-0.2c0-2.7-2.2-4.9-4.9-4.9c-1,0-1.9,0.3-2.7,0.8l-0.9,0.6l0-1.1
			c0-4.6-3.6-8.2-8.1-8.2c-4,0-7.3,2.8-8,6.7l-0.1,0.8L9.7,12c-1-0.5-2-0.8-3.1-0.8c-3.7,0-6.6,3-6.6,6.6c-0.2,6.3,6,6.8,6.2,6.8
			l2.1,0L14.7,14c-0.2-1-0.1-2,0.4-2.9c0.5-0.9,1.4-1.5,2.4-1.8c1-0.3,2.1-0.1,3,0.4c0.9,0.5,1.5,1.4,1.8,2.4c0.3,1,0.1,2.1-0.4,3
			c-0.5,0.9-1.4,1.5-2.3,1.7L14.9,24.7z"/>
	</g>
	<path id="XMLID_4_" class="st1" d="M19.6,11.5c-0.8-0.5-1.9-0.2-2.3,0.6c-0.4,0.6-0.3,1.3,0.2,1.9L11,24.7h1.4l6.1-10.1
		c0.7,0.1,1.4-0.1,1.7-0.8C20.7,13,20.4,12,19.6,11.5z"/>
</g>
</svg>
