<?xml version="1.0" encoding="utf-8"?>
<!-- Generator: Adobe Illustrator 22.0.1, SVG Export Plug-In . SVG Version: 6.00 Build 0)  -->
<svg version="1.1" id="Layer_1" xmlns="http://www.w3.org/2000/svg" xmlns:xlink="http://www.w3.org/1999/xlink" x="0px" y="0px"
	 viewBox="0 0 60 56.7" style="enable-background:new 0 0 60 56.7;" xml:space="preserve">
<style type="text/css">
	.st0{fill:#A99769;}
</style>
<path class="st0" d="M40.4,20.7c-2.7,1.8-4.9,4.6-6.5,7.7c0.9-2.3,2-4.5,3.5-6.6c2.6-3.7,6.1-5.7,9.3-8.7c0.3-0.3,0-0.7-0.4-0.7
	C36.8,14.6,32.1,26.3,31.9,35c0,0.1,0,0.2,0.1,0.2c-0.1,1.5-0.1,2.9,0.2,4.3c0,0.2,0.3,0.2,0.3,0c0.2-5.1,1.1-9.8,4.5-13.8
	c1.3-1.6,3-3,4.7-4.1c3-1.9,10.4-3.1,9.1,1.6c-1.1-1.5-4.2-1.4-4.5,1.4c-0.5,4.7,6.9,3.8,7-0.7C53.6,16.5,44.2,18.1,40.4,20.7z"/>
<path class="st0" d="M44.7,34c-3.6,0.9-3.2,4.9-1.1,6.2c-5.5,0.5-5.8-7.8-3.5-13.3c-3.3,3-3,8.3-3,8.4c0,5,3.8,9.2,7.9,8.3
	C51,42.1,50.9,32.5,44.7,34z"/>
<path class="st0" d="M30.1,35c-0.2-8.7-4.9-20.4-14.4-22.6c-0.4-0.1-0.7,0.4-0.4,0.7c3.2,3,6.7,5,9.3,8.7c1.4,2.1,2.6,4.3,3.5,6.6
	c-1.5-3.1-3.8-5.8-6.5-7.7c-3.8-2.6-13.2-4.2-13,3.1c0.1,4.5,7.5,5.5,7,0.7c-0.3-2.8-3.3-2.8-4.5-1.4c-1.2-4.7,6.1-3.5,9.1-1.6
	c1.8,1.1,3.4,2.5,4.7,4.1c3.4,4,4.3,8.8,4.5,13.8c0,0.2,0.3,0.2,0.3,0c0.3-1.4,0.3-2.9,0.2-4.3C30,35.2,30.1,35.1,30.1,35z"/>
<path class="st0" d="M21.8,26.9c2.3,5.4,2,13.7-3.5,13.3c2.1-1.3,2.5-5.3-1.1-6.2c-6.2-1.5-6.3,8.1-0.2,9.5c4.1,1,7.9-3.3,7.9-8.3
	C24.8,35.2,25.2,29.9,21.8,26.9z"/>
<path class="st0" d="M37,16.4l-0.9-0.2v0.1c-0.3,0.7-0.9,1.2-1.3,1c-0.4-0.2-0.5-0.8-0.3-1.5l-0.8-0.1v0.1c-0.2,1-0.8,1.7-1.4,1.6
	c-0.6-0.1-0.9-1-0.7-2v-0.1H31l-0.6,0.1v0.1c0.2,1-0.1,1.9-0.7,2s-1.2-0.6-1.4-1.6v-0.1L27.4,16c0.2,0.7,0.1,1.3-0.3,1.5
	s-1-0.3-1.3-1v-0.1l-0.9,0.2c0,0,0.9,1.5,1.8,3.2C29,20,31,21.6,31,21.6s2-1.6,4.3-1.8C36.1,17.9,37,16.4,37,16.4z"/>
</svg>
