<?xml version="1.0" standalone="no"?>
<!DOCTYPE svg PUBLIC "-//W3C//DTD SVG 20010904//EN"
 "http://www.w3.org/TR/2001/REC-SVG-20010904/DTD/svg10.dtd">
<svg version="1.0" xmlns="http://www.w3.org/2000/svg"
 width="5248.000000pt" height="2623.000000pt" viewBox="0 0 5248.000000 2623.000000"
 preserveAspectRatio="xMidYMid meet">

<g transform="translate(0.000000,2623.000000) scale(0.100000,-0.100000)"
fill="#000000" stroke="none">
<path d="M24850 26214 c-19 -2 -91 -9 -160 -15 -677 -60 -1384 -312 -1967
-702 -921 -614 -1566 -1540 -1838 -2637 -23 -96 -64 -301 -90 -455 -26 -154
-49 -282 -51 -284 -1 -2 -117 58 -256 132 -281 150 -463 232 -673 300 -417
136 -753 185 -1198 174 -248 -6 -400 -23 -617 -67 -1287 -267 -2332 -1244
-2709 -2533 -113 -388 -159 -779 -148 -1257 18 -707 155 -1259 440 -1770 502
-902 1459 -1514 2692 -1722 122 -20 169 -22 736 -25 l605 -4 1724 2918 c948
1605 1723 2925 1722 2933 0 8 -10 69 -22 135 -104 593 65 1227 452 1703 419
515 1093 809 1745 762 292 -21 498 -75 760 -200 638 -305 1066 -883 1188
-1600 22 -131 31 -429 16 -560 -74 -652 -403 -1204 -927 -1556 -131 -87 -346
-192 -493 -240 l-119 -38 -1248 -2114 c-687 -1162 -1250 -2120 -1252 -2128 -3
-12 672 -14 5430 -11 4989 2 5442 4 5538 19 362 57 640 152 857 294 328 213
523 493 622 894 74 298 84 665 26 920 -67 291 -208 550 -417 766 -165 170
-347 293 -555 374 -139 54 -271 85 -485 111 l-181 23 7 115 c4 64 14 177 22
251 26 225 -1 511 -76 804 -240 942 -980 1688 -1905 1920 -242 61 -328 71
-635 71 -255 0 -299 -3 -415 -24 -316 -56 -583 -149 -841 -292 -60 -34 -235
-147 -389 -253 -154 -106 -284 -195 -290 -198 -7 -4 -10 154 -10 465 0 498 -5
580 -56 882 -208 1243 -903 2325 -1934 3012 -560 373 -1207 608 -1895 689
-126 15 -645 28 -730 18z"/>
<path d="M10145 11749 c-348 -27 -703 -104 -1015 -221 -1364 -511 -2341 -1710
-2575 -3162 -61 -379 -61 -933 0 -1312 49 -300 121 -568 227 -834 281 -709
753 -1316 1361 -1752 532 -381 1151 -621 1817 -703 175 -22 599 -30 790 -16
514 39 978 161 1425 375 903 433 1576 1168 1939 2119 327 855 349 1899 59
2792 -351 1079 -1091 1917 -2100 2378 -584 267 -1268 386 -1928 336z m655
-1504 c407 -62 768 -214 1100 -461 131 -98 337 -297 443 -429 412 -510 618
-1158 577 -1808 -38 -616 -262 -1132 -669 -1551 -389 -398 -895 -656 -1461
-743 -165 -25 -571 -25 -725 0 -516 85 -988 329 -1365 707 -411 410 -662 939
-721 1515 -15 148 -7 469 16 610 84 535 342 1044 735 1449 208 214 413 363
685 496 242 119 484 192 725 219 52 6 111 13 130 15 75 9 430 -4 530 -19z"/>
<path d="M0 7750 l0 -3690 810 0 810 0 2 1750 3 1750 1459 -1740 c803 -957
1465 -1745 1471 -1750 8 -7 349 -9 963 -8 l952 3 -1510 1859 c-932 1149 -1506
1864 -1501 1870 5 6 679 823 1498 1816 819 993 1493 1811 1497 1818 6 9 -205
12 -947 12 l-955 0 -1464 -1745 -1463 -1745 -3 1745 -2 1745 -810 0 -810 0 0
-3690z"/>
<path d="M15380 7750 l0 -3690 805 0 805 0 2 2983 3 2982 1255 3 c1310 3 1407
1 1537 -39 282 -87 462 -317 518 -663 13 -78 15 -451 15 -2678 l0 -2588 810 0
810 0 0 2985 0 2986 1313 -4 c1433 -3 1337 1 1470 -60 236 -108 436 -359 520
-654 l22 -78 3 -2588 2 -2587 813 2 812 3 0 2775 c0 2609 -1 2782 -18 2899
-76 533 -256 919 -561 1209 -223 212 -524 370 -831 437 -239 51 -173 49 -1465
52 l-1205 3 -435 -595 c-239 -327 -438 -594 -441 -595 -3 0 -11 18 -18 40 -19
65 -125 269 -185 355 -248 359 -656 625 -1121 729 -280 63 -207 60 -1535 63
l-1215 2 -425 -535 c-234 -294 -431 -540 -437 -546 -10 -8 -13 100 -13 536 l0
546 -805 0 -805 0 0 -3690z"/>
<path d="M27263 11428 c11 -27 3546 -7314 3561 -7341 l15 -27 806 2 806 3
1769 3685 1770 3685 -868 3 c-477 1 -868 -1 -870 -5 -1 -5 -580 -1236 -1286
-2738 l-1283 -2730 -53 0 -52 0 -1291 2737 -1292 2737 -869 1 c-691 0 -867 -3
-863 -12z"/>
<path d="M35540 7768 c-970 -2019 -1765 -3680 -1768 -3690 -4 -17 30 -18 860
-18 l864 0 464 1020 464 1020 1691 0 1690 -1 480 -1017 480 -1017 869 -3 c529
-1 866 2 864 7 -1 5 -804 1666 -1782 3690 l-1780 3681 -816 0 -817 0 -1763
-3672z m3189 879 c325 -673 591 -1227 591 -1230 0 -4 -536 -7 -1191 -7 -949 0
-1190 3 -1186 13 8 21 1118 2411 1128 2430 6 10 21 17 38 17 27 0 42 -29 620
-1223z"/>
<path d="M45505 11433 c-22 -2 -107 -13 -190 -24 -632 -89 -1236 -400 -1725
-889 -585 -584 -956 -1385 -1066 -2305 -26 -212 -26 -701 -1 -905 47 -380 143
-759 279 -1100 256 -642 673 -1195 1185 -1570 386 -283 786 -456 1220 -529
260 -44 231 -44 2231 -48 l1922 -4 0 650 0 651 -1812 3 c-1700 3 -1818 4
-1888 21 -251 59 -489 182 -727 372 -474 380 -858 1028 -964 1629 -27 152 -36
438 -20 597 42 396 196 792 466 1197 349 522 856 900 1289 960 53 8 648 11
1867 11 l1789 0 0 645 0 645 -1907 -2 c-1050 -1 -1926 -3 -1948 -5z"/>
<path d="M51371 5555 c-414 -94 -691 -401 -742 -823 -33 -276 70 -571 271
-773 114 -114 252 -194 416 -241 107 -31 342 -33 449 -4 313 84 559 314 655
613 42 130 53 218 47 353 -20 411 -285 747 -678 860 -98 28 -324 37 -418 15z
m414 -139 c282 -92 486 -319 550 -610 24 -109 17 -311 -15 -411 -77 -242 -255
-439 -478 -530 -150 -61 -369 -71 -517 -25 -331 105 -560 396 -582 740 -24
396 233 754 613 850 117 29 317 23 429 -14z"/>
<path d="M51200 4630 l0 -540 65 0 65 0 0 210 0 210 103 0 102 -1 134 -209
133 -210 84 0 83 0 -140 212 -139 213 57 19 c79 26 162 109 189 186 43 128 16
258 -75 351 -47 48 -67 60 -125 78 -61 19 -93 21 -302 21 l-234 0 0 -540z
m537 374 c117 -93 107 -262 -20 -335 -39 -22 -53 -24 -214 -27 l-173 -4 0 202
0 201 184 -3 184 -3 39 -31z"/>
<path d="M7730 1675 c-204 -41 -356 -156 -411 -311 -46 -125 -32 -285 31 -384
80 -124 188 -178 540 -270 238 -62 322 -113 337 -204 14 -87 -28 -156 -119
-197 -47 -21 -67 -24 -188 -24 -121 0 -141 3 -188 24 -63 29 -127 98 -144 155
-6 23 -14 44 -17 48 -5 6 -291 58 -320 58 -16 0 -14 -75 4 -145 52 -201 196
-333 430 -396 109 -29 324 -32 440 -6 100 23 226 83 286 136 186 164 210 481
48 649 -87 91 -174 132 -411 192 -273 69 -370 106 -401 154 -21 31 -22 117 -3
154 40 76 107 105 241 105 81 0 110 -5 153 -23 60 -26 114 -81 132 -134 6 -20
13 -36 15 -36 11 0 283 -41 303 -45 20 -5 22 -2 22 43 0 147 -95 303 -232 380
-144 81 -371 113 -548 77z"/>
<path d="M10358 1675 c-322 -61 -570 -298 -650 -623 -29 -119 -29 -293 1 -407
160 -606 886 -827 1341 -408 116 107 196 240 242 401 30 103 32 312 5 417 -27
101 -107 260 -170 336 -186 223 -492 337 -769 284z m228 -336 c245 -45 424
-301 387 -555 -57 -398 -527 -561 -807 -280 -98 98 -145 212 -146 351 0 185
108 358 274 440 106 52 183 64 292 44z"/>
<path d="M40509 1675 c-277 -53 -507 -243 -613 -507 -45 -113 -59 -206 -54
-353 4 -112 9 -143 37 -225 158 -470 669 -698 1109 -494 281 129 464 399 479
706 15 292 -104 554 -330 723 -175 132 -418 190 -628 150z m233 -336 c135 -28
263 -126 330 -254 138 -265 18 -587 -261 -697 -78 -31 -231 -31 -313 -1 -152
56 -271 189 -313 350 -88 336 223 671 557 602z"/>
<path d="M43260 1654 c-348 -74 -594 -349 -641 -715 -52 -401 233 -800 630
-885 85 -18 247 -18 333 1 180 38 347 144 462 294 41 53 81 121 74 125 -2 0
-32 16 -68 33 -36 18 -100 51 -144 74 -68 37 -79 40 -87 27 -26 -47 -92 -118
-140 -151 -83 -57 -158 -79 -264 -79 -193 1 -342 99 -429 282 -26 56 -31 79
-34 166 -6 154 28 252 126 356 176 189 460 200 649 25 23 -22 52 -54 63 -73
25 -39 14 -42 188 49 l132 69 -22 41 c-36 64 -166 196 -245 247 -172 113 -390
156 -583 114z"/>
<path d="M12500 850 l0 -810 170 0 170 0 0 320 0 320 360 0 360 0 0 160 0 160
-360 0 -360 0 0 180 0 180 410 0 410 0 0 150 0 150 -580 0 -580 0 0 -810z"/>
<path d="M25900 850 l0 -810 613 2 612 3 3 148 3 147 -451 0 -450 0 0 170 0
170 360 0 360 0 0 160 0 160 -360 0 -360 0 0 180 0 180 410 0 410 0 0 150 0
150 -575 0 -575 0 0 -810z"/>
<path d="M37232 853 l3 -808 168 -3 167 -2 0 345 0 345 370 0 370 0 0 -345 0
-345 170 0 170 0 0 810 0 810 -170 0 -170 0 0 -290 0 -290 -370 0 -370 0 0
290 0 290 -170 0 -170 0 2 -807z"/>
<path d="M14822 1503 l3 -148 253 -3 252 -2 0 -655 0 -655 170 0 170 0 0 655
0 655 250 0 250 0 0 150 0 150 -675 0 -676 0 3 -147z"/>
<path d="M17255 1628 c4 -13 97 -374 209 -803 l203 -780 175 -3 175 -2 16 62
c9 35 68 281 132 548 64 267 118 486 120 488 1 2 40 -149 85 -335 45 -186 105
-432 134 -548 l52 -210 172 -3 171 -2 15 52 c36 128 406 1537 406 1547 0 8
-54 11 -167 11 l-168 0 -115 -551 c-106 -508 -124 -578 -145 -557 -3 3 -65
252 -139 554 l-133 549 -164 3 -164 2 -129 -517 c-71 -285 -133 -533 -138
-551 -10 -34 -33 -43 -42 -14 -2 9 -53 257 -112 550 l-108 532 -173 0 -173 0
5 -22z"/>
<path d="M21051 1608 c-43 -99 -684 -1535 -693 -1551 -8 -16 0 -17 152 -15
l160 3 78 165 c42 91 81 171 85 178 6 9 98 12 402 12 l394 0 12 -23 c7 -12 43
-92 80 -177 l67 -155 166 -3 c91 -1 166 1 166 6 0 4 -157 365 -349 802 l-349
795 -176 3 -177 2 -18 -42z m327 -565 c67 -164 122 -304 122 -310 0 -10 -58
-13 -256 -13 -246 0 -256 1 -251 19 8 33 252 601 257 601 3 0 61 -134 128
-297z"/>
<path d="M23310 845 l0 -805 175 0 175 0 0 290 0 290 88 0 87 -1 198 -289 198
-290 210 0 c115 0 209 2 209 5 0 2 -97 135 -215 295 -119 160 -213 295 -210
300 3 6 12 10 19 10 7 0 45 16 84 35 122 61 204 176 237 331 28 131 11 256
-50 381 -59 119 -159 194 -313 234 -68 17 -113 19 -484 19 l-408 0 0 -805z
m785 515 c22 -7 59 -31 81 -54 33 -33 44 -53 54 -101 24 -112 -11 -223 -87
-272 -45 -30 -141 -43 -315 -43 l-168 0 0 238 c0 131 3 242 8 246 11 12 382 0
427 -14z"/>
<path d="M30652 1633 c-6 -10 -166 -369 -357 -798 -191 -429 -349 -783 -352
-787 -2 -5 67 -8 155 -8 l159 0 84 180 84 180 399 -2 400 -3 76 -175 76 -175
168 -3 c157 -2 167 -1 162 15 -3 10 -161 371 -351 803 l-344 785 -175 3 c-159
2 -176 1 -184 -15z m311 -581 c65 -158 120 -297 123 -310 l6 -22 -256 0 c-194
0 -256 3 -256 12 0 17 253 608 260 608 3 0 58 -130 123 -288z"/>
<path d="M32900 845 l0 -806 418 4 c358 3 425 6 477 21 187 54 328 170 409
337 74 152 91 239 90 459 -1 208 -15 283 -78 415 -83 176 -206 281 -401 346
-68 23 -81 23 -492 27 l-423 3 0 -806z m758 491 c144 -39 243 -150 277 -313
17 -81 19 -291 4 -365 -28 -130 -106 -235 -212 -284 -61 -29 -65 -29 -269 -32
l-208 -3 0 505 0 506 178 0 c120 0 194 -5 230 -14z"/>
<path d="M35490 585 l0 -75 265 0 265 0 0 75 0 75 -265 0 -265 0 0 -75z"/>
</g>
</svg>
