<?xml version="1.0" encoding="utf-8"?>
<!-- Generator: Adobe Illustrator 22.0.1, SVG Export Plug-In . SVG Version: 6.00 Build 0)  -->
<svg version="1.1" id="Layer_1" xmlns="http://www.w3.org/2000/svg" xmlns:xlink="http://www.w3.org/1999/xlink" x="0px" y="0px"
	 viewBox="0 0 230 57" style="enable-background:new 0 0 230 57;" xml:space="preserve">
<style type="text/css">
	.st0{fill:#A99769;}
	.st1{fill:#412238;}
</style>
<g>
	<g>
		<path class="st0" d="M59.4,15.3c-4.9,3.3-9,8.3-11.7,13.9c1.6-4.2,3.7-8.2,6.3-12c4.7-6.7,11-10.4,16.8-15.8
			c0.5-0.5,0-1.4-0.7-1.2c-17.2,4-25.7,25.2-26.1,41c0,0.2,0.1,0.3,0.1,0.4c-0.2,2.7-0.2,5.3,0.4,7.9c0.1,0.4,0.6,0.3,0.6,0
			c0.4-9.2,2.1-17.9,8.2-25.1c2.4-2.9,5.4-5.4,8.6-7.4c5.5-3.4,18.8-5.6,16.6,3c-2-2.7-7.6-2.6-8.1,2.5c-0.8,8.6,12.5,6.9,12.7-1.4
			C83.2,7.7,66.2,10.6,59.4,15.3z"/>
		<path class="st0" d="M67.2,39.3c-6.5,1.6-5.8,8.9-2.1,11.2c-10,0.8-10.5-14.2-6.4-24.1c-6.1,5.4-5.4,15.1-5.4,15.2
			c0,9.1,6.9,16.7,14.3,15C78.6,53.9,78.5,36.6,67.2,39.3z"/>
		<path class="st0" d="M40.6,41.2c-0.4-15.8-8.9-37-26.1-41c-0.7-0.2-1.2,0.7-0.7,1.2c5.8,5.4,12.1,9.1,16.8,15.8
			c2.6,3.7,4.7,7.8,6.3,12c-2.8-5.6-6.9-10.6-11.7-13.9C18.3,10.6,1.3,7.7,1.6,21c0.2,8.2,13.5,9.9,12.7,1.4c-0.5-5-6.1-5.1-8.1-2.5
			c-2.2-8.6,11.1-6.3,16.6-3c3.2,2,6.1,4.5,8.6,7.4c6.1,7.2,7.8,15.9,8.2,25.1c0,0.4,0.5,0.4,0.6,0c0.5-2.6,0.6-5.2,0.4-7.9
			C40.6,41.4,40.6,41.3,40.6,41.2z"/>
		<path class="st0" d="M25.7,26.4c4.1,9.9,3.7,24.9-6.4,24.1c3.8-2.3,4.5-9.6-2.1-11.2C6.1,36.6,6,53.9,16.9,56.6
			c7.3,1.8,14.3-5.9,14.3-15C31.1,41.6,31.8,31.9,25.7,26.4z"/>
		<path class="st0" d="M53.3,7.5l-1.5-0.3c0,0.1,0,0.2-0.1,0.3c-0.5,1.3-1.6,2.1-2.4,1.8c-0.7-0.3-1-1.4-0.6-2.7l-1.4-0.3
			c0,0.1,0,0.1,0,0.2c-0.3,1.8-1.5,3.1-2.5,2.8c-1.1-0.2-1.7-1.8-1.3-3.6c0-0.1,0-0.1,0-0.2l-1.1-0.2l-1.1,0.2c0,0.1,0,0.1,0,0.2
			C41.6,7.5,41,9.1,40,9.3c-1.1,0.2-2.2-1.1-2.5-2.8c0-0.1,0-0.1,0-0.2l-1.4,0.3c0.4,1.2,0.2,2.4-0.6,2.7s-1.9-0.5-2.4-1.8
			c0-0.1,0-0.2-0.1-0.3l-1.5,0.3c0,0,1.7,2.7,3.3,5.9c4.2,0.3,7.7,3.2,7.7,3.2s3.5-2.9,7.7-3.2C51.6,10.2,53.3,7.5,53.3,7.5z"/>
	</g>
	<g>
		<polygon class="st1" points="104.5,51 101.5,51 101.5,47.5 102.8,47.5 103.3,48.9 103.6,48.9 103.6,45.8 103.3,45.8 102.8,47.2 
			101.5,47.2 101.5,43.8 104.3,43.8 105.1,45.7 105.3,45.7 105.3,43.5 99.6,43.5 99.6,43.7 100.5,43.9 100.5,50.9 99.6,51 
			99.6,51.2 105.5,51.2 105.5,48.9 105.3,48.9 		"/>
		<path class="st1" d="M109.2,46.1c-0.7,0-1.2,0.4-1.6,1.1v-3.7H106v0.2l0.7,0.1v7.1L106,51v0.2h1.6v-1c0.3,0.7,0.9,1.1,1.6,1.1
			s1.3-0.2,1.7-0.7c0.4-0.5,0.6-1.1,0.6-1.9s-0.2-1.4-0.6-1.9C110.5,46.4,109.9,46.1,109.2,46.1z M110.5,49.2c0,1.2-0.4,1.9-1.3,1.9
			c-0.4,0-0.8-0.2-1.1-0.6c-0.3-0.4-0.4-0.8-0.4-1.3v-1c0-0.5,0.2-0.9,0.4-1.3c0.3-0.3,0.6-0.5,1.1-0.5c0.9,0,1.3,0.6,1.3,1.9V49.2z
			"/>
		<path class="st1" d="M116.9,50.6c0,0.3-0.1,0.4-0.4,0.4s-0.4-0.1-0.4-0.4v-2.9c0-1-0.6-1.5-1.9-1.5c-0.5,0-1,0.1-1.4,0.4
			c-0.4,0.2-0.6,0.5-0.6,0.9c0,0.2,0.1,0.3,0.2,0.4s0.3,0.2,0.4,0.2c0.2,0,0.3-0.1,0.4-0.2s0.2-0.3,0.2-0.4
			c-0.2-0.1-0.2-0.2-0.2-0.3c0-0.2,0.1-0.3,0.3-0.5c0.2-0.1,0.4-0.2,0.7-0.2c0.6,0,1,0.4,1,1.1v0.9h-0.3c-1.3,0-2.1,0.3-2.6,0.9
			c-0.2,0.2-0.2,0.5-0.2,0.9s0.1,0.7,0.4,0.9s0.6,0.3,1,0.3s0.8-0.1,1.1-0.3c0.3-0.2,0.5-0.4,0.7-0.8c0,0.4,0.1,0.6,0.3,0.8
			c0.2,0.2,0.4,0.3,0.7,0.3c0.3,0,0.5-0.1,0.6-0.2s0.2-0.3,0.2-0.5h-0.2V50.6z M115.2,49.6c0,0.4-0.2,0.7-0.4,0.9
			c-0.3,0.2-0.5,0.3-0.8,0.3s-0.5-0.1-0.6-0.2c-0.1-0.1-0.2-0.3-0.2-0.6c0-0.5,0.2-0.8,0.5-1.1c0.3-0.2,0.8-0.4,1.3-0.4h0.3v1.1
			H115.2z"/>
		<path class="st1" d="M122,47.5c0-0.4-0.1-0.8-0.4-1s-0.6-0.3-1.1-0.3c-0.7,0-1.3,0.4-1.9,1.1v-1H117v0.2l0.7,0.1V51H117v0.2h2.2
			V51l-0.6-0.1v-3.3c0.5-0.7,1-1.1,1.6-1.1c0.5,0,0.8,0.4,0.8,1.1V51l-0.6,0.1v0.2h2.2V51l-0.7-0.1L122,47.5L122,47.5z"/>
		<path class="st1" d="M123.4,44c-0.1,0.1-0.2,0.3-0.2,0.4c0,0.2,0.1,0.3,0.2,0.5s0.3,0.2,0.5,0.2s0.3-0.1,0.4-0.2s0.2-0.3,0.2-0.5
			s-0.1-0.3-0.2-0.4c-0.1-0.1-0.3-0.2-0.4-0.2C123.7,43.9,123.5,43.9,123.4,44z"/>
		<polygon class="st1" points="124.5,46.3 122.8,46.3 122.8,46.4 123.5,46.5 123.5,50.9 122.8,51 122.8,51.2 125.1,51.2 125.1,51 
			124.5,50.9 		"/>
		<path class="st1" d="M128.1,48.4l-1.5-0.5c-0.2-0.1-0.4-0.2-0.5-0.3s-0.1-0.2-0.1-0.5c0-0.2,0.1-0.4,0.4-0.6
			c0.2-0.2,0.6-0.2,1-0.2c0.6,0,0.9,0.2,0.9,0.6c0,0.2-0.1,0.3-0.2,0.4c0,0.1,0,0.2,0.1,0.3s0.2,0.1,0.4,0.1c0.1,0,0.3-0.1,0.4-0.2
			c0.1-0.1,0.2-0.2,0.2-0.4c0-0.3-0.1-0.5-0.5-0.7c-0.3-0.2-0.7-0.3-1.2-0.3s-1,0.1-1.3,0.4c-0.3,0.3-0.5,0.6-0.5,1
			c0,0.7,0.3,1.1,0.9,1.3l1.2,0.4c0.4,0.1,0.7,0.3,0.9,0.4c0.2,0.1,0.3,0.3,0.3,0.6s-0.1,0.5-0.4,0.6c-0.3,0.2-0.6,0.3-0.9,0.3
			c-0.7,0-1-0.3-1-0.8c0-0.1,0.1-0.3,0.2-0.4c-0.1-0.3-0.3-0.4-0.6-0.4c-0.2,0-0.3,0.1-0.4,0.2c-0.1,0.1-0.2,0.3-0.2,0.5
			c0,0.7,0.6,1.1,1.9,1.1c0.6,0,1-0.2,1.3-0.5s0.4-0.7,0.4-1c0-0.4-0.1-0.7-0.3-0.9C128.8,48.6,128.5,48.5,128.1,48.4z"/>
		<path class="st1" d="M131.9,51c-0.5,0-0.7-0.3-0.7-1v-3.4l1.2-0.1v-0.2h-1.2v-1l-0.9,0.2v0.8h-0.7v0.2l0.7,0.1V50
			c0,0.9,0.5,1.3,1.4,1.3c0.4,0,0.7-0.1,1-0.4l-0.1-0.2C132.3,50.9,132.1,51,131.9,51z"/>
		<path class="st1" d="M137.4,48.2c0-0.6-0.2-1.1-0.6-1.5c-0.4-0.4-0.9-0.6-1.6-0.6c-0.7,0-1.2,0.2-1.7,0.7s-0.7,1.1-0.7,1.9
			c0,0.8,0.2,1.4,0.7,1.8c0.5,0.5,1.1,0.7,1.8,0.7c0.5,0,1-0.1,1.3-0.4c0.4-0.3,0.6-0.7,0.7-1.1h-0.2c-0.1,0.4-0.3,0.7-0.6,1
			s-0.7,0.4-1.2,0.4s-0.8-0.2-1.1-0.5c-0.2-0.3-0.4-0.8-0.4-1.4v-0.9h3.6V48.2z M134.2,46.8c0.2-0.3,0.6-0.4,1-0.4
			c0.7,0,1.1,0.5,1.1,1.6h-2.5C133.9,47.5,134,47.1,134.2,46.8z"/>
		<path class="st1" d="M140.7,46.1c-0.5,0-1,0.3-1.4,0.8v-0.7h-1.6v0.2l0.7,0.1v4.4l-0.7,0.1v0.2h2.4V51l-0.8-0.1v-3.6
			c0.3-0.5,0.6-0.8,0.9-0.8c0.1,0,0.2,0,0.3,0.1s0.1,0.2,0.1,0.3s0,0.2-0.1,0.3c0.1,0.2,0.3,0.2,0.5,0.2s0.3-0.1,0.5-0.2
			c0.1-0.1,0.2-0.3,0.2-0.5s-0.1-0.4-0.3-0.5C141.2,46.2,140.9,46.1,140.7,46.1z"/>
		<path class="st1" d="M142.2,44c-0.1,0.1-0.2,0.3-0.2,0.4c0,0.2,0.1,0.3,0.2,0.5c0.1,0.1,0.3,0.2,0.5,0.2s0.3-0.1,0.4-0.2
			s0.2-0.3,0.2-0.5s-0.1-0.3-0.2-0.4c-0.1-0.1-0.3-0.2-0.4-0.2C142.5,43.9,142.3,43.9,142.2,44z"/>
		<polygon class="st1" points="143.3,46.3 141.7,46.3 141.7,46.4 142.3,46.5 142.3,50.9 141.7,51 141.7,51.2 144,51.2 144,51 
			143.3,50.9 		"/>
		<path class="st1" d="M148.7,51c-0.2,0-0.4-0.1-0.4-0.4v-2.9c0-1-0.6-1.5-1.9-1.5c-0.5,0-1,0.1-1.4,0.4c-0.4,0.2-0.6,0.5-0.6,0.9
			c0,0.2,0.1,0.3,0.2,0.4s0.3,0.2,0.4,0.2c0.2,0,0.3-0.1,0.4-0.2c0.1-0.1,0.2-0.3,0.2-0.4c-0.2-0.1-0.2-0.2-0.2-0.3
			c0-0.2,0.1-0.3,0.3-0.5c0.2-0.1,0.4-0.2,0.7-0.2c0.6,0,1,0.4,1,1.1v0.9h-0.3c-1.3,0-2.1,0.3-2.6,0.9c-0.2,0.2-0.2,0.5-0.2,0.9
			s0.1,0.7,0.4,0.9c0.3,0.2,0.6,0.3,1,0.3s0.8-0.1,1.1-0.3s0.5-0.4,0.7-0.8c0,0.4,0.1,0.6,0.3,0.8s0.4,0.3,0.7,0.3s0.5-0.1,0.6-0.2
			s0.2-0.3,0.2-0.5h-0.2C149.1,50.9,149,51,148.7,51z M147.4,49.6c0,0.4-0.2,0.7-0.4,0.9c-0.3,0.2-0.5,0.3-0.8,0.3s-0.5-0.1-0.6-0.2
			c-0.1-0.1-0.2-0.3-0.2-0.6c0-0.5,0.2-0.8,0.5-1.1c0.3-0.2,0.8-0.4,1.3-0.4h0.3v1.1H147.4z"/>
		<path class="st1" d="M157.9,46.1c-0.2,0-0.4,0.1-0.5,0.2c-0.1,0.1-0.2,0.2-0.2,0.4c0,0.3,0.2,0.5,0.5,0.5c0.1-0.2,0.2-0.3,0.4-0.3
			s0.3,0.1,0.3,0.3s-0.1,0.3-0.3,0.4c-0.2,0.1-0.4,0.1-0.6,0.1c-0.2,0-0.6,0-0.9-0.1c-0.4-0.1-0.7-0.1-1-0.1c-0.5,0-0.8,0.1-1.1,0.4
			c-0.3,0.3-0.4,0.6-0.4,0.9c0,0.3,0.1,0.6,0.2,0.8c0.2,0.2,0.3,0.3,0.5,0.3s0.4-0.1,0.5-0.2c0.1-0.1,0.2-0.2,0.2-0.4
			c0-0.3-0.2-0.5-0.5-0.5c-0.1,0.2-0.2,0.3-0.4,0.3s-0.3-0.1-0.3-0.3c0-0.3,0.3-0.5,1-0.5c0.2,0,0.4,0,0.7,0.1c0.2,0,0.3,0,0.4,0
			c0.1,0.3,0.1,0.5,0.1,0.8c0,0.6-0.2,1-0.5,1.4c-0.3,0.3-0.8,0.5-1.3,0.5s-1-0.2-1.3-0.6c-0.3-0.4-0.5-0.9-0.5-1.5
			c0-1.3,0.8-2,2.3-2.1v-0.2c-0.7,0-1.2-0.2-1.6-0.5c-0.4-0.3-0.5-0.7-0.5-1.4c0-0.4,0.1-0.8,0.4-1s0.6-0.4,0.9-0.4
			c0.4,0,0.6,0.1,0.8,0.2c0.2,0.1,0.3,0.3,0.3,0.5c0,0.3-0.1,0.5-0.4,0.6c0,0.2,0.1,0.3,0.2,0.4s0.2,0.1,0.4,0.1s0.3-0.1,0.4-0.2
			c0.1-0.1,0.2-0.3,0.2-0.5c0-0.4-0.2-0.7-0.5-1s-0.8-0.4-1.3-0.4c-0.8,0-1.4,0.1-1.8,0.4c-0.4,0.3-0.7,0.7-0.7,1.3s0.2,1,0.6,1.3
			c0.4,0.3,1,0.5,1.8,0.6l0,0c-0.8,0-1.4,0.2-1.9,0.6c-0.5,0.4-0.7,0.9-0.7,1.6c0,0.7,0.3,1.2,0.8,1.6c0.5,0.4,1.3,0.6,2.3,0.6
			c0.6,0,1.1-0.2,1.5-0.6s0.6-0.9,0.6-1.5c0-0.2,0-0.4-0.1-0.7c0.2,0,0.4,0,0.7,0c1,0,1.4-0.5,1.4-1.5c0-0.3-0.1-0.5-0.2-0.7
			C158.3,46.2,158.1,46.1,157.9,46.1z"/>
		<path class="st1" d="M166.4,50.4c-0.2,0.2-0.5,0.4-0.8,0.6c-0.3,0.1-0.6,0.2-1,0.2c-0.7,0-1.2-0.3-1.6-0.8
			c-0.4-0.5-0.6-1.2-0.6-2.1v-1.8c0-0.9,0.2-1.6,0.6-2.1c0.4-0.5,1-0.8,1.6-0.8s1.2,0.2,1.7,0.7l0.6,1.5h0.2v-2.4h-0.2l-0.6,0.6
			c-0.5-0.4-1-0.6-1.6-0.6c-1,0-1.9,0.4-2.5,1.1c-0.6,0.8-1,1.7-1,2.9s0.3,2.2,0.9,2.9s1.5,1.1,2.6,1.1c0.6,0,1.1-0.2,1.6-0.6
			l0.7,0.5h0.2v-2.5H167L166.4,50.4z"/>
		<path class="st1" d="M172.6,50.6c0,0.3-0.1,0.4-0.4,0.4s-0.4-0.1-0.4-0.4v-2.9c0-1-0.6-1.5-1.9-1.5c-0.5,0-1,0.1-1.4,0.4
			c-0.4,0.2-0.6,0.5-0.6,0.9c0,0.2,0.1,0.3,0.2,0.4s0.3,0.2,0.4,0.2c0.2,0,0.3-0.1,0.4-0.2s0.2-0.3,0.2-0.4
			c-0.2-0.1-0.2-0.2-0.2-0.3c0-0.2,0.1-0.3,0.3-0.5c0.2-0.1,0.4-0.2,0.7-0.2c0.6,0,1,0.4,1,1.1v0.9h-0.3c-1.3,0-2.1,0.3-2.6,0.9
			c-0.2,0.2-0.2,0.5-0.2,0.9s0.1,0.7,0.4,0.9c0.3,0.2,0.6,0.3,1,0.3s0.8-0.1,1.1-0.3s0.5-0.4,0.7-0.8c0,0.4,0.1,0.6,0.3,0.8
			s0.4,0.3,0.7,0.3s0.5-0.1,0.6-0.2s0.2-0.3,0.2-0.5h-0.2V50.6z M170.9,49.6c0,0.4-0.2,0.7-0.4,0.9c-0.3,0.2-0.5,0.3-0.8,0.3
			s-0.5-0.1-0.6-0.2c-0.1-0.1-0.2-0.3-0.2-0.6c0-0.5,0.2-0.8,0.5-1.1c0.3-0.2,0.8-0.4,1.3-0.4h0.3v1.1H170.9z"/>
		<path class="st1" d="M176.4,46.3c-0.2-0.1-0.4-0.2-0.6-0.2c-0.5,0-1,0.3-1.4,0.8v-0.7h-1.6v0.2l0.7,0.1v4.4l-0.7,0.1v0.2h2.4V51
			l-0.8-0.1v-3.6c0.3-0.5,0.6-0.8,0.9-0.8c0.1,0,0.2,0,0.3,0.1s0.1,0.2,0.1,0.3s0,0.2-0.1,0.3c0.1,0.2,0.3,0.2,0.5,0.2
			s0.3-0.1,0.5-0.2c0.1-0.1,0.2-0.3,0.2-0.5C176.7,46.6,176.6,46.5,176.4,46.3z"/>
		<path class="st1" d="M179.9,46.1c-0.7,0-1.2,0.4-1.6,1.1v-1h-1.6v0.2l0.7,0.1v7.1l-0.7,0.1v0.2h2.5v-0.2l-0.9-0.1v-3.4
			c0.3,0.7,0.9,1.1,1.6,1.1c0.7,0,1.3-0.2,1.7-0.7s0.6-1.1,0.6-1.9s-0.2-1.4-0.6-1.9C181.2,46.4,180.6,46.1,179.9,46.1z M181.2,49.2
			c0,1.2-0.4,1.8-1.3,1.8c-0.4,0-0.8-0.2-1.1-0.5c-0.3-0.4-0.4-0.8-0.4-1.3v-1c0-0.5,0.2-0.9,0.4-1.3c0.3-0.4,0.6-0.5,1.1-0.5
			c0.9,0,1.3,0.6,1.3,1.9V49.2z"/>
		<polygon class="st1" points="184.3,46.3 182.6,46.3 182.6,46.4 183.3,46.5 183.3,50.9 182.6,51 182.6,51.2 184.9,51.2 184.9,51 
			184.3,50.9 		"/>
		<path class="st1" d="M184.1,44.9c0.1-0.1,0.2-0.3,0.2-0.5s-0.1-0.3-0.2-0.4c-0.1-0.1-0.3-0.2-0.4-0.2c-0.2,0-0.3,0.1-0.5,0.2
			c-0.1,0.1-0.2,0.3-0.2,0.4c0,0.2,0.1,0.3,0.2,0.5c0.1,0.1,0.3,0.2,0.5,0.2C183.8,45.1,184,45.1,184.1,44.9z"/>
		<path class="st1" d="M190.1,47.5c0-0.4-0.1-0.8-0.4-1c-0.3-0.2-0.6-0.3-1.1-0.3c-0.7,0-1.3,0.4-1.9,1.1v-1h-1.6v0.2l0.7,0.1V51
			l-0.7,0.1v0.2h2.2V51l-0.6-0.1v-3.3c0.5-0.7,1-1.1,1.6-1.1c0.5,0,0.8,0.4,0.8,1.1V51l-0.6,0.1v0.2h2.2V51l-0.7-0.1v-3.4H190.1z"/>
		<path class="st1" d="M193.2,51c-0.5,0-0.7-0.3-0.7-1v-3.4l1.2-0.1v-0.2h-1.2v-1l-0.9,0.2v0.8h-0.7v0.2l0.7,0.1V50
			c0,0.9,0.5,1.3,1.4,1.3c0.4,0,0.7-0.1,1-0.4l-0.1-0.2C193.6,50.9,193.4,51,193.2,51z"/>
		<path class="st1" d="M198.7,48.2c0-0.6-0.2-1.1-0.6-1.5c-0.4-0.4-0.9-0.6-1.6-0.6c-0.7,0-1.2,0.2-1.7,0.7s-0.7,1.1-0.7,1.9
			c0,0.8,0.2,1.4,0.7,1.8c0.5,0.5,1.1,0.7,1.8,0.7c0.5,0,1-0.1,1.3-0.4c0.4-0.3,0.6-0.7,0.7-1.1h-0.2c-0.1,0.4-0.3,0.7-0.6,1
			s-0.7,0.4-1.2,0.4s-0.8-0.2-1.1-0.5c-0.2-0.3-0.4-0.8-0.4-1.4v-0.9h3.6V48.2z M195.6,46.8c0.2-0.3,0.6-0.4,1-0.4
			c0.7,0,1.1,0.5,1.1,1.6h-2.5C195.2,47.5,195.3,47.1,195.6,46.8z"/>
		<path class="st1" d="M202,46.1c-0.5,0-1,0.3-1.4,0.8v-0.7H199v0.2l0.7,0.1v4.4L199,51v0.2h2.4V51l-0.8-0.1v-3.6
			c0.3-0.5,0.6-0.8,0.9-0.8c0.1,0,0.2,0,0.3,0.1s0.1,0.2,0.1,0.3s0,0.2-0.1,0.3c0.1,0.2,0.3,0.2,0.5,0.2s0.3-0.1,0.5-0.2
			c0.1-0.1,0.2-0.3,0.2-0.5s-0.1-0.4-0.3-0.5C202.5,46.2,202.3,46.1,202,46.1z"/>
		<polygon class="st1" points="204.6,46.3 203,46.3 203,46.4 203.7,46.5 203.7,50.9 203,51 203,51.2 205.3,51.2 205.3,51 
			204.6,50.9 		"/>
		<path class="st1" d="M204.5,44.9c0.1-0.1,0.2-0.3,0.2-0.5s-0.1-0.3-0.2-0.4c-0.1-0.1-0.3-0.2-0.4-0.2c-0.2,0-0.3,0.1-0.5,0.2
			c-0.1,0.1-0.2,0.3-0.2,0.4c0,0.2,0.1,0.3,0.2,0.5c0.1,0.1,0.3,0.2,0.5,0.2C204.2,45.1,204.3,45.1,204.5,44.9z"/>
		<path class="st1" d="M210,51c-0.2,0-0.4-0.1-0.4-0.4v-2.9c0-1-0.6-1.5-1.9-1.5c-0.5,0-1,0.1-1.4,0.4c-0.4,0.2-0.6,0.5-0.6,0.9
			c0,0.2,0.1,0.3,0.2,0.4s0.3,0.2,0.4,0.2c0.2,0,0.3-0.1,0.4-0.2s0.2-0.3,0.2-0.4c-0.2-0.1-0.2-0.2-0.2-0.3c0-0.2,0.1-0.3,0.3-0.5
			c0.2-0.1,0.4-0.2,0.7-0.2c0.6,0,1,0.4,1,1.1v0.9h-0.3c-1.3,0-2.1,0.3-2.6,0.9c-0.2,0.2-0.2,0.5-0.2,0.9s0.1,0.7,0.4,0.9
			c0.3,0.2,0.6,0.3,1,0.3s0.8-0.1,1.1-0.3s0.5-0.4,0.7-0.8c0,0.4,0.1,0.6,0.3,0.8s0.4,0.3,0.7,0.3s0.5-0.1,0.6-0.2s0.2-0.3,0.2-0.5
			h-0.2C210.4,50.9,210.3,51,210,51z M208.7,49.6c0,0.4-0.2,0.7-0.4,0.9c-0.3,0.2-0.5,0.3-0.8,0.3s-0.5-0.1-0.6-0.2
			c-0.1-0.1-0.2-0.3-0.2-0.6c0-0.5,0.2-0.8,0.5-1.1c0.3-0.2,0.8-0.4,1.3-0.4h0.3v1.1H208.7z"/>
		<path class="st1" d="M155.4,38.3c3.8,0,6.9-1.2,9.4-3.7s3.7-5.6,3.7-9.4s-1.2-6.9-3.7-9.3s-5.7-3.7-9.5-3.7s-7,1.2-9.5,3.7
			c-2.5,2.4-3.7,5.6-3.7,9.4s1.3,6.9,3.8,9.4C148.5,37.1,151.7,38.3,155.4,38.3z M147.7,22.9c0-2.9,0.6-5.3,1.9-7
			c1.3-1.7,3.2-2.6,5.7-2.6s4.4,0.9,5.7,2.6s1.9,4,1.9,7v4.8c0,2.9-0.6,5.2-1.9,7c-1.2,1.8-3.1,2.6-5.7,2.6c-2.5,0-4.5-0.9-5.7-2.6
			c-1.3-1.8-1.9-4.1-1.9-7V22.9z"/>
		<path class="st1" d="M217,37.9h11.3v-1l-3.6-0.4v-33h-9v1l3.9,0.4v31.6l-1.2,0.1c0.3-0.5,0.5-1.1,0.5-1.9H218
			c0,1.2-0.5,1.9-1.5,2.1H216c-1.2,0-1.8-0.8-1.8-2.2V19.8c0.1-5-3.4-7.5-10.3-7.5c-2.9,0-5.3,0.6-7.3,1.8s-3,2.6-3,4.3
			c0,0.9,0.3,1.6,1,2.2c0.6,0.6,1.4,0.9,2.2,0.9c0.9,0,1.6-0.3,2.3-0.9c0.6-0.6,1-1.3,1-2.2c-0.9-0.3-1.3-0.8-1.3-1.7
			c0-0.9,0.5-1.7,1.5-2.4s2.2-1,3.8-1c3.4,0,5.1,1.8,5.1,5.3v4.7h-1.8c-6.8,0-11.4,1.4-13.7,4.3c-0.8,1.1-1.2,2.6-1.2,4.5
			c0,1.9,0.7,3.4,2,4.4c1.4,1.1,3.1,1.6,5.2,1.6c2.1,0,4-0.5,5.7-1.4s2.9-2.2,3.8-3.9c0.1,1.8,0.6,3.1,1.7,4
			c1.1,0.9,2.3,1.3,3.8,1.3C215.5,38.3,216.4,38.2,217,37.9z M209,29.6c-0.2,2-1,3.6-2.4,4.7c-1.4,1.2-2.8,1.7-4.3,1.7
			s-2.6-0.4-3.4-1.1c-0.7-0.7-1.1-1.8-1.1-3.1c0-2.4,0.9-4.2,2.7-5.4s4-1.8,6.7-1.8h1.8V29.6z"/>
		<path class="st1" d="M109,36.3l-3-0.4V18.8c2.3-3.2,4.8-4.8,7.5-4.8s4,1.7,4,5.2v16.7l-3,0.4v1h11.1v-1l-3-0.4V18.8
			c2.3-3.2,4.8-4.8,7.5-4.8c2.7,0,4,1.7,4,5.2v16.7l-2.9,0.4v1h11.5v-1l-3.5-0.4V19.1c0-2.3-0.7-4-2-5.1s-3.2-1.7-5.6-1.7
			c-3.5,0-6.5,1.7-9.1,5.1c-0.7-3.4-3.2-5.1-7.5-5.1c-3.4,0-6.4,1.6-8.9,4.8v-4.4h-8.5v0.9l3.5,0.5v21.8l-3.5,0.4v1H109V36.3z"/>
		<path class="st1" d="M192,35.5c-1.4-1-3.4-1.5-6-1.5h-8.2c-1.3,0-2.4-0.2-3.2-0.6c-0.9-0.4-1.3-0.9-1.3-1.7c0-1.5,1.1-2.3,3.3-2.5
			c1.4,0.6,3.1,0.9,4.9,0.9c3,0,5.4-0.8,7.3-2.4c1.9-1.6,2.9-3.8,2.9-6.4s-0.8-4.7-2.4-6.3c2.6-0.2,4.5-0.7,5.6-1.7
			c1.2-1,1.7-2,1.7-3.1s-0.3-2-0.9-2.5c-0.6-0.5-1.3-0.8-2.2-0.8s-1.6,0.3-2.2,0.8c-0.6,0.5-0.9,1.2-0.9,2.1c0.4,0,0.8,0.2,1.1,0.5
			s0.5,0.8,0.5,1.4c0,0.6-0.3,1.2-0.9,1.7c-0.6,0.5-1.6,0.8-2.9,0.8c-1.8-1.4-4.2-2.1-7-2.1s-5.2,0.8-7.1,2.4
			c-1.9,1.6-2.9,3.9-2.9,7s1.3,5.4,3.9,7.1c-1.4,0.3-2.5,0.9-3.3,1.8s-1.2,2.1-1.2,3.5c0,3.2,2.4,4.7,7.1,4.7h9.7
			c1.2,0,2.1,0.1,2.9,0.3l0,0c0,0,3.2,0.5,3,5.4c0.5-1.2,0.7-2.5,0.7-3.9C194,38.2,193.3,36.5,192,35.5z M176,19.9
			c0-4.7,1.8-7,5.5-7c3.6,0,5.5,2.3,5.5,7v2.3c0,2.2-0.5,4-1.4,5.2c-0.9,1.2-2.3,1.9-4.1,1.9s-3.2-0.6-4.1-1.9s-1.3-3-1.3-5.2
			L176,19.9L176,19.9z"/>
		<path class="st1" d="M228.6,45.6l-1.5-0.9c-0.5,0.9-1.1,1.8-1.6,2.4c-1.4-1.3-3.3-2.1-5.3-2.1c-2.4,0-4.6,1.1-6,2.9l-0.4,0.6
			l0.4,0.6c1.5,1.9,3.7,2.9,6,2.9c2,0,3.8-0.7,5.3-2.1c0.4,0.6,1,1.5,1.6,2.4l1.5-0.9c-0.7-1.2-1.4-2.2-1.9-2.9
			C227.2,47.8,228,46.7,228.6,45.6z M216.1,48.4c2.2-2.2,6.2-2.1,8.4,0C222.3,50.6,218.4,50.7,216.1,48.4z"/>
	</g>
</g>
</svg>
